<svg width="24" height="24" viewBox="0 0 18 18" fill="none" xmlns="http://www.w3.org/2000/svg">
<path d="M17 17L12.6364 12.6364M1 7.78788C1 8.67928 1.17557 9.56195 1.5167 10.3855C1.85782 11.209 2.35781 11.9573 2.98812 12.5876C3.61844 13.2179 4.36673 13.7179 5.19027 14.0591C6.01381 14.4002 6.89648 14.5758 7.78788 14.5758C8.67928 14.5758 9.56195 14.4002 10.3855 14.0591C11.209 13.7179 11.9573 13.2179 12.5876 12.5876C13.2179 11.9573 13.7179 11.209 14.0591 10.3855C14.4002 9.56195 14.5758 8.67928 14.5758 7.78788C14.5758 6.89648 14.4002 6.01381 14.0591 5.19027C13.7179 4.36673 13.2179 3.61844 12.5876 2.98812C11.9573 2.35781 11.209 1.85782 10.3855 1.5167C9.56195 1.17557 8.67928 1 7.78788 1C6.89648 1 6.01381 1.17557 5.19027 1.5167C4.36673 1.85782 3.61844 2.35781 2.98812 2.98812C2.35781 3.61844 1.85782 4.36673 1.5167 5.19027C1.17557 6.01381 1 6.89648 1 7.78788Z" stroke="black" stroke-width="2" stroke-linecap="round" stroke-linejoin="round"/>
</svg>
